<?xml version="1.0" encoding="utf-8"?>
<!-- Generator: Adobe Illustrator 24.1.2, SVG Export Plug-In . SVG Version: 6.00 Build 0)  -->
<svg version="1.1" xmlns="http://www.w3.org/2000/svg" xmlns:xlink="http://www.w3.org/1999/xlink" x="0px" y="0px"
	 viewBox="0 0 579.3 576" style="enable-background:new 0 0 579.3 576;" xml:space="preserve">
<style type="text/css">
	.st0{fill:#FFFFFF;}
	.st1{fill:none;}
	.st2{fill-rule:evenodd;clip-rule:evenodd;}
	.st3{fill:none;stroke:#000000;stroke-width:20.2343;stroke-linecap:round;stroke-linejoin:round;stroke-miterlimit:2.2701;}
</style>
<g id="Calque_2">
	<rect x="18.9" y="18.3" class="st0" width="541.4" height="541.4"/>
</g>
<g id="Calque_1" xmlns:serif="http://www.serif.com/">
	<g transform="matrix(1,0,0,1,-2791,-1149)">
		<g id="Plan-de-travail2" transform="matrix(1.2107,0,0,1.38385,-588.536,-441.041)" serif:id="Plan de travail2">
			<rect x="2784.8" y="1142.8" class="st1" width="491.7" height="430.2"/>
			<g transform="matrix(1.04996,0,0,0.918585,102.155,892.643)">
				<g id="EthicOnChain">
					<rect x="2576.2" y="293.5" class="st1" width="425.9" height="425.9"/>
					<g transform="matrix(0.84035,0,0,0.84035,2546.65,171.235)">
						<path d="M460.9,253.5c0,12.8,1.3,22,3.8,27.5c2.6,5.5,6.7,8.2,12.6,8.2c5.8,0,14.1-1.4,24.7-4.2l5.7,30.9
							c-11.5,4.2-23.1,6.3-34.8,6.3c-17.5,0-30.2-5.8-38.2-17.4c-8-11.6-11.9-28.9-11.9-51.9s4.2-40.6,12.5-52.7
							C443.6,188,457.2,182,476,182c11.1,0,21.7,2.3,31.7,7l-5.9,33.9c-11.4-3.8-19.3-5.7-23.9-5.7c-6.4,0-10.9,2.8-13.3,8.4
							C462.1,231.2,460.9,240.5,460.9,253.5z"/>
						<rect x="368.6" y="184.1" width="37.2" height="135.9"/>
						<path d="M348,320h-37.2v-51.4h-25.6V320h-37.6V184.1h37.6v53.4h25.6v-53.4H348V320z"/>
						<path d="M236.8,217.2h-25.4V320H174V217.2h-26.9l2.2-33H239L236.8,217.2z"/>
						<path d="M142.9,320H69.4V184.1h75.7l-2.2,33.5h-36.1V238h31.3v28.9h-31.3v22.5h38.3L142.9,320z"/>
					</g>
					<g id="ON" transform="matrix(0.807944,0,0,0.807944,2295.24,286.114)">
						<g transform="matrix(1,0,0,1,4.54747e-13,0.628885)">
							<path d="M511.2,224.3c8.5-10.9,22.2-16.4,41.4-16.4c19.1,0,32.8,5.4,41,16.2c8.2,10.8,12.4,28.3,12.4,52.6
								c0,24.3-4.2,42.3-12.7,53.9c-8.5,11.7-22.2,17.5-41.1,17.5c-19,0-32.6-5.8-40.9-17.3c-8.3-11.5-12.5-29.4-12.5-53.7
								C498.8,252.8,502.9,235.2,511.2,224.3z M568.4,276.8c0-13.4-1.1-22.5-3.2-27.2c-2.1-4.7-6.4-7.1-12.9-7.1
								c-6.5,0-10.7,2.4-12.6,7.1c-1.9,4.7-2.8,13.7-2.8,27v5.3c0,14.2,1.1,23.5,3.2,27.9c2.1,4.5,6.4,6.7,12.9,6.7
								s10.7-2.1,12.6-6.3c1.9-4.2,2.8-13,2.8-26.3V276.8z"/>
						</g>
						<g transform="matrix(1,0,0,1,4.54747e-13,0.628885)">
							<path d="M720,345.9h-35.9l-28.2-63.2h-1.8v63.2h-33.3V210h37l26.9,65.2h1.8V210H720V345.9z"/>
						</g>
						<g transform="matrix(1.32878,4.0931e-32,2.34176e-32,1.65179,302.62,-1186.35)">
							<rect x="289.5" y="876.9" class="st2" width="50.2" height="20.1"/>
						</g>
						<g transform="matrix(1.32878,4.0931e-32,2.34176e-32,1.65179,117.628,-1186.35)">
							<rect x="263" y="876.9" class="st2" width="50.2" height="20.1"/>
						</g>
						<g transform="matrix(-1.31015,0,0,1.31015,806.868,296.729)">
							<path class="st2" d="M4.6-12.7c0,9.8,1,16.8,2.9,21c1.9,4.2,5.2,6.3,9.6,6.3s10.7-1.1,18.9-3.2l4.3,23.6
								c-8.8,3.2-17.6,4.8-26.6,4.8c-13.4,0-23.1-4.4-29.1-13.3c-6.1-8.9-9.1-22-9.1-39.6s3.2-31,9.5-40.3S1.8-67.4,16.1-67.4
								c8.5,0,16.5,1.8,24.2,5.3l-4.5,25.9c-8.7-2.9-14.8-4.3-18.2-4.3c-4.9,0-8.3,2.1-10.2,6.4S4.6-22.6,4.6-12.7z M2-12.7
								C2-23.1,3-30.6,5-35.1c2.3-5.3,6.5-8,12.6-8c3.2,0,8.6,1.1,16.1,3.5l3.6-20.8c-6.8-2.9-13.9-4.3-21.2-4.3
								c-13.3,0-23,4.2-28.9,12.8c-6.1,8.9-9.1,21.9-9.1,38.8c0,16.9,2.8,29.6,8.6,38.1c5.6,8.2,14.6,12.1,27,12.1
								c7.9,0,15.7-1.3,23.5-3.9l-3.4-18.5c-7.1,1.7-12.7,2.6-16.8,2.6c-5.6,0-9.6-2.6-12-7.8C3.1,5,2-2.4,2-12.7z"/>
						</g>
						<g transform="matrix(1.31015,0,0,1.31015,337.186,296.729)">
							<path class="st2" d="M63.4-12.7c0,9.8,1,16.8,2.9,21c1.9,4.2,5.2,6.3,9.6,6.3s10.7-1.1,18.9-3.2l4.3,23.6
								c-8.8,3.2-17.6,4.8-26.6,4.8c-13.4,0-23.1-4.4-29.1-13.3c-6.1-8.9-9.1-22-9.1-39.6s3.2-31,9.5-40.3s16.7-13.9,31.1-13.9
								c8.5,0,16.5,1.8,24.2,5.3l-4.5,25.9c-8.7-2.9-14.8-4.3-18.2-4.3c-4.9,0-8.3,2.1-10.2,6.4C64.3-29.7,63.4-22.6,63.4-12.7z
								 M60.7-12.7c0,10.3,1.1,17.7,3.2,22.1c2.4,5.2,6.4,7.8,12,7.8c4.1,0,9.7-0.8,16.8-2.6l3.4,18.5c-7.8,2.6-15.6,3.9-23.5,3.9
								c-12.3,0-21.4-4-27-12.1C39.8,16.4,37,3.7,37-13.1C37-30,39.9-43,46-51.9c5.9-8.6,15.6-12.8,28.9-12.8
								c7.4,0,14.5,1.4,21.2,4.3c0,0-3.6,20.8-3.6,20.8C85-42,79.6-43.1,76.4-43.1c-6.1,0-10.3,2.7-12.6,8
								C61.8-30.6,60.7-23.1,60.7-12.7z"/>
						</g>
					</g>
					<g transform="matrix(0.763271,0,0,0.763271,2056.5,404.943)">
						<path d="M913.9,375.1h-37.2v-51.4H851v51.4h-37.6V239.2H851v53.4h25.6v-53.4h37.2V375.1z"/>
						<path d="M1029.8,375.1h-36.5l-4.2-21.4h-25.8l-4.2,21.4h-34.8l24.9-135.9h55.6L1029.8,375.1z M985,328.1l-7.7-48.6h-1.5
							l-7.7,48.6H985z"/>
						<rect x="1043.4" y="239.2" width="37.2" height="135.9"/>
						<path d="M1201.2,375.1h-35.9l-28.2-63.2h-1.8v63.2H1102V239.2h37l26.9,65.2h1.8v-65.2h33.5V375.1z"/>
						<g transform="matrix(-1.31015,0,0,1.31015,830.67,296.101)">
							<path d="M49.8,9.5c0,9.8,1,16.8,2.9,21c1.9,4.2,5.2,6.3,9.6,6.3s10.7-1.1,18.9-3.2l4.3,23.6C76.7,60.4,67.9,62,59,62
								c-13.4,0-23.1-4.4-29.1-13.3c-6.1-8.9-9.1-22-9.1-39.6s3.2-31,9.5-40.3c6.3-9.3,16.7-13.9,31.1-13.9c8.5,0,16.5,1.8,24.2,5.3
								L81-13.9c-8.7-2.9-14.8-4.3-18.2-4.3c-4.9,0-8.3,2.1-10.2,6.4C50.7-7.5,49.8-0.4,49.8,9.5z"/>
						</g>
					</g>
					<rect x="2576.2" y="293.5" class="st3" width="425.9" height="425.9"/>
				</g>
			</g>
		</g>
	</g>
</g>
</svg>
