<?xml version="1.0" encoding="UTF-8" standalone="no"?>
<!DOCTYPE svg PUBLIC "-//W3C//DTD SVG 1.1//EN" "http://www.w3.org/Graphics/SVG/1.1/DTD/svg11.dtd">
<svg width="100%" height="100%" viewBox="0 0 500 500" version="1.1" xmlns="http://www.w3.org/2000/svg" xmlns:xlink="http://www.w3.org/1999/xlink" xml:space="preserve" xmlns:serif="http://www.serif.com/" style="fill-rule:evenodd;clip-rule:evenodd;stroke-linecap:round;stroke-linejoin:round;stroke-miterlimit:1.5;">
    <g transform="matrix(1,0,0,1,-2791,-1149)">
        <g id="Plan-de-travail2" serif:id="Plan de travail2" transform="matrix(1.2107,0,0,1.38385,-588.536,-441.041)">
            <rect x="2791.4" y="1149" width="412.985" height="361.312" style="fill:none;"/>
            <g transform="matrix(1.04996,0,0,0.918585,102.155,892.643)">
                <g id="EthicOnChain">
                    <rect x="2579.07" y="296.863" width="357.765" height="357.765" style="fill:none;"/>
                    <g transform="matrix(0.84035,0,0,0.84035,2546.65,171.235)">
                        <path d="M396.196,240.223C396.196,251.006 397.268,258.696 399.413,263.291C401.557,267.886 405.08,270.184 409.982,270.184C414.883,270.184 421.807,269.019 430.752,266.691L435.531,292.608C425.851,296.162 416.109,297.939 406.306,297.939C391.601,297.939 380.909,293.068 374.231,283.326C367.553,273.584 364.213,259.063 364.213,239.763C364.213,220.463 367.706,205.697 374.69,195.465C381.675,185.233 393.071,180.117 408.879,180.117C418.192,180.117 427.076,182.078 435.531,185.999L430.568,214.49C421.01,211.304 414.332,209.711 410.533,209.711C405.141,209.711 401.404,212.069 399.321,216.787C397.238,221.505 396.196,229.317 396.196,240.223Z" style="fill-rule:nonzero;"/>
                        <rect x="318.629" y="181.955" width="31.247" height="114.145" style="fill-rule:nonzero;"/>
                        <path d="M301.351,296.101L270.103,296.101L270.103,252.906L248.598,252.906L248.598,296.101L216.983,296.101L216.983,181.955L248.598,181.955L248.598,226.805L270.103,226.805L270.103,181.955L301.351,181.955L301.351,296.101Z" style="fill-rule:nonzero;"/>
                        <path d="M207.976,209.711L186.654,209.711L186.654,296.101L155.223,296.101L155.223,209.711L132.614,209.711L134.453,181.955L209.814,181.955L207.976,209.711Z" style="fill-rule:nonzero;"/>
                        <path d="M129.122,296.101L67.362,296.101L67.362,181.955L130.96,181.955L129.122,210.078L98.794,210.078L98.794,227.172L125.078,227.172L125.078,251.435L98.794,251.435L98.794,270.367L130.96,270.367L129.122,296.101Z" style="fill-rule:nonzero;"/>
                    </g>
                    <g id="ON" transform="matrix(0.807944,0,0,0.807944,2295.24,286.114)">
                        <g transform="matrix(1,0,0,1,4.54747e-13,0.628885)">
                            <path d="M488.652,193.903C495.759,184.713 507.339,180.117 523.392,180.117C539.444,180.117 550.932,184.651 557.856,193.719C564.779,202.787 568.241,217.522 568.241,237.925C568.241,258.328 564.687,273.431 557.58,283.234C550.473,293.037 538.954,297.939 523.024,297.939C507.094,297.939 495.637,293.098 488.652,283.418C481.667,273.737 478.175,258.696 478.175,238.293C478.175,217.89 481.667,203.093 488.652,193.903ZM536.626,238.017C536.626,226.743 535.737,219.115 533.961,215.133C532.184,211.15 528.569,209.159 523.116,209.159C517.663,209.159 514.14,211.15 512.547,215.133C510.954,219.115 510.157,226.682 510.157,237.833L510.157,242.245C510.157,254.131 511.046,261.943 512.823,265.68C514.599,269.418 518.214,271.286 523.667,271.286C529.12,271.286 532.643,269.51 534.236,265.956C535.829,262.402 536.626,255.05 536.626,243.899L536.626,238.017Z" style="fill-rule:nonzero;"/>
                        </g>
                        <g transform="matrix(1,0,0,1,4.54747e-13,0.628885)">
                            <path d="M664.005,296.101L633.861,296.101L610.149,242.98L608.679,242.98L608.679,296.101L580.74,296.101L580.74,181.955L611.804,181.955L634.412,236.73L635.883,236.73L635.883,181.955L664.005,181.955L664.005,296.101Z" style="fill-rule:nonzero;"/>
                        </g>
                        <g transform="matrix(1.32878,4.0931e-32,2.34176e-32,1.65179,302.62,-1186.35)">
                            <rect x="251.273" y="854.871" width="42.168" height="16.877"/>
                        </g>
                        <g transform="matrix(1.32878,4.0931e-32,2.34176e-32,1.65179,117.628,-1186.35)">
                            <rect x="251.273" y="854.871" width="42.168" height="16.877"/>
                        </g>
                        <g transform="matrix(-1.31015,0,0,1.31015,806.868,296.729)">
                            <path d="M57.241,-42.65C57.241,-34.419 58.059,-28.55 59.696,-25.043C61.333,-21.535 64.022,-19.782 67.763,-19.782C71.504,-19.782 76.789,-20.67 83.616,-22.447L87.264,-2.666C79.875,0.047 72.439,1.403 64.957,1.403C53.733,1.403 45.573,-2.315 40.475,-9.751C35.378,-17.186 32.829,-28.27 32.829,-43.001C32.829,-57.732 35.495,-69.002 40.826,-76.812C46.157,-84.622 54.856,-88.527 66.921,-88.527C74.029,-88.527 80.81,-87.03 87.264,-84.037L83.476,-62.291C76.181,-64.723 71.083,-65.939 68.184,-65.939C64.068,-65.939 61.216,-64.139 59.626,-60.538C58.036,-56.937 57.241,-50.974 57.241,-42.65ZM55.011,-42.65C55.011,-51.398 55.915,-57.654 57.586,-61.438C59.559,-65.905 63.079,-68.169 68.184,-68.169C70.877,-68.169 75.395,-67.205 81.721,-65.206C81.721,-65.206 84.769,-82.704 84.769,-82.704C79.081,-85.099 73.132,-86.297 66.921,-86.297C55.732,-86.297 47.611,-82.797 42.667,-75.555C37.538,-68.04 35.059,-57.175 35.059,-43.001C35.059,-28.838 37.413,-18.16 42.314,-11.011C47.019,-4.149 54.599,-0.827 64.957,-0.827C71.585,-0.827 78.174,-1.931 84.726,-4.136C84.726,-4.136 81.855,-19.705 81.855,-19.705C75.899,-18.26 71.2,-17.552 67.763,-17.552C63.091,-17.552 59.719,-19.72 57.676,-24.1C55.95,-27.797 55.011,-33.973 55.011,-42.65Z"/>
                        </g>
                        <g transform="matrix(1.31015,0,0,1.31015,337.186,296.729)">
                            <path d="M57.241,-42.65C57.241,-34.419 58.059,-28.55 59.696,-25.043C61.333,-21.535 64.022,-19.782 67.763,-19.782C71.504,-19.782 76.789,-20.67 83.616,-22.447L87.264,-2.666C79.875,0.047 72.439,1.403 64.957,1.403C53.733,1.403 45.573,-2.315 40.475,-9.751C35.378,-17.186 32.829,-28.27 32.829,-43.001C32.829,-57.732 35.495,-69.002 40.826,-76.812C46.157,-84.622 54.856,-88.527 66.921,-88.527C74.029,-88.527 80.81,-87.03 87.264,-84.037L83.476,-62.291C76.181,-64.723 71.083,-65.939 68.184,-65.939C64.068,-65.939 61.216,-64.139 59.626,-60.538C58.036,-56.937 57.241,-50.974 57.241,-42.65ZM55.011,-42.65C55.011,-33.973 55.95,-27.797 57.676,-24.1C59.719,-19.72 63.091,-17.552 67.763,-17.552C71.2,-17.552 75.899,-18.26 81.855,-19.705C81.855,-19.705 84.726,-4.136 84.726,-4.136C78.174,-1.931 71.585,-0.827 64.957,-0.827C54.599,-0.827 47.019,-4.149 42.314,-11.011C37.413,-18.16 35.059,-28.838 35.059,-43.001C35.059,-57.175 37.538,-68.04 42.667,-75.555C47.611,-82.797 55.732,-86.297 66.921,-86.297C73.132,-86.297 79.081,-85.099 84.768,-82.704C84.769,-82.704 81.721,-65.206 81.721,-65.206C75.395,-67.205 70.877,-68.169 68.184,-68.169C63.079,-68.169 59.559,-65.905 57.586,-61.438C55.915,-57.654 55.011,-51.398 55.011,-42.65Z"/>
                        </g>
                    </g>
                    <g transform="matrix(0.763271,0,0,0.763271,2056.5,404.943)">
                        <path d="M880.348,296.101L849.101,296.101L849.101,252.906L827.595,252.906L827.595,296.101L795.98,296.101L795.98,181.955L827.595,181.955L827.595,226.805L849.101,226.805L849.101,181.955L880.348,181.955L880.348,296.101Z" style="fill-rule:nonzero;"/>
                        <path d="M977.767,296.101L947.07,296.101L943.578,278.087L921.889,278.087L918.396,296.101L889.171,296.101L910.125,181.955L956.812,181.955L977.767,296.101ZM940.086,256.582L933.652,215.776L932.366,215.776L925.933,256.582L940.086,256.582Z" style="fill-rule:nonzero;"/>
                        <rect x="989.163" y="181.955" width="31.247" height="114.145" style="fill-rule:nonzero;"/>
                        <path d="M1121.69,296.101L1091.54,296.101L1067.83,242.98L1066.36,242.98L1066.36,296.101L1038.42,296.101L1038.42,181.955L1069.49,181.955L1092.1,236.73L1093.57,236.73L1093.57,181.955L1121.69,181.955L1121.69,296.101Z" style="fill-rule:nonzero;"/>
                        <g transform="matrix(-1.31015,0,0,1.31015,830.67,296.101)">
                            <path d="M57.241,-42.65C57.241,-34.419 58.059,-28.55 59.696,-25.043C61.333,-21.535 64.022,-19.782 67.763,-19.782C71.504,-19.782 76.789,-20.67 83.616,-22.447L87.264,-2.666C79.875,0.047 72.439,1.403 64.957,1.403C53.733,1.403 45.573,-2.315 40.475,-9.751C35.378,-17.186 32.829,-28.27 32.829,-43.001C32.829,-57.732 35.495,-69.002 40.826,-76.812C46.157,-84.622 54.856,-88.527 66.921,-88.527C74.029,-88.527 80.81,-87.03 87.264,-84.037L83.476,-62.291C76.181,-64.723 71.083,-65.939 68.184,-65.939C64.068,-65.939 61.216,-64.139 59.626,-60.538C58.036,-56.937 57.241,-50.974 57.241,-42.65Z" style="fill-rule:nonzero;"/>
                        </g>
                    </g>
                    <rect x="2579.07" y="296.863" width="357.765" height="357.765" style="fill:none;stroke:black;stroke-width:13.37px;"/>
                </g>
            </g>
        </g>
    </g>
</svg>
