<?xml version="1.0" encoding="utf-8"?>
<!-- Generator: Adobe Illustrator 24.1.2, SVG Export Plug-In . SVG Version: 6.00 Build 0)  -->
<svg version="1.1" id="Calque_1" xmlns:serif="http://www.serif.com/"
	 xmlns="http://www.w3.org/2000/svg" xmlns:xlink="http://www.w3.org/1999/xlink" x="0px" y="0px" viewBox="0 0 595.3 84.1"
	 style="enable-background:new 0 0 595.3 84.1;" xml:space="preserve">
<style type="text/css">
	.st0{fill:none;}
	.st1{fill:#FFFFFF;}
	.st2{fill-rule:evenodd;clip-rule:evenodd;fill:#FFFFFF;}
</style>
<g transform="matrix(1,0,0,1,-2227,-1149)">
	<g id="LogoEnLigne" transform="matrix(0.77476,0,0,0.243334,501.596,869.342)">
		<rect x="2227" y="1149.3" class="st0" width="768.3" height="345.7"/>
		<g id="EthicOnChain" transform="matrix(0.617559,0,0,1.96627,2184.56,824.481)">
			<g transform="matrix(1,0,0,1,17.032,0)">
				<path class="st1" d="M461.8,254.5c0,12.8,1.3,22,3.8,27.5c2.6,5.5,6.7,8.2,12.6,8.2c5.8,0,14.1-1.4,24.7-4.2l5.7,30.9
					c-11.5,4.2-23.1,6.3-34.8,6.3c-17.5,0-30.2-5.8-38.2-17.4c-8-11.6-11.9-28.9-11.9-51.9c0-23,4.2-40.6,12.5-52.7
					c8.3-12.2,21.9-18.3,40.7-18.3c11.1,0,21.7,2.3,31.7,7l-5.9,33.9c-11.4-3.8-19.3-5.7-23.9-5.7c-6.4,0-10.9,2.8-13.3,8.4
					C463.1,232.2,461.8,241.5,461.8,254.5z"/>
				<rect x="369.5" y="185.1" class="st1" width="37.2" height="135.9"/>
				<path class="st1" d="M348.9,321h-37.2v-51.4h-25.6V321h-37.6V185.1h37.6v53.4h25.6v-53.4h37.2V321z"/>
				<path class="st1" d="M237.8,218.2h-25.4V321h-37.4V218.2H148l2.2-33h89.7L237.8,218.2z"/>
				<path class="st1" d="M143.9,321H70.3V185.1h75.7l-2.2,33.5h-36.1V239h31.3v28.9h-31.3v22.5h38.3L143.9,321z"/>
			</g>
			<g id="ON">
				<path class="st1" d="M568.7,199.4c8.5-10.9,22.2-16.4,41.4-16.4c19.1,0,32.8,5.4,41,16.2c8.2,10.8,12.4,28.3,12.4,52.6
					s-4.2,42.3-12.7,53.9s-22.2,17.5-41.1,17.5c-19,0-32.6-5.8-40.9-17.3c-8.3-11.5-12.5-29.4-12.5-53.7S560.3,210.3,568.7,199.4z
					 M625.8,251.9c0-13.4-1.1-22.5-3.2-27.2c-2.1-4.7-6.4-7.1-12.9-7.1c-6.5,0-10.7,2.4-12.6,7.1c-1.9,4.7-2.8,13.7-2.8,27v5.3
					c0,14.2,1.1,23.5,3.2,27.9c2.1,4.5,6.4,6.7,12.9,6.7c6.5,0,10.7-2.1,12.6-6.3c1.9-4.2,2.8-13,2.8-26.3V251.9z"/>
				<path class="st1" d="M777.4,321h-35.9l-28.2-63.2h-1.8V321h-33.3V185.1h37l26.9,65.2h1.8v-65.2h33.5V321z"/>
				<g transform="matrix(1.32878,4.0931e-32,2.34176e-32,1.65179,302.62,-1186.98)">
					<rect x="332.7" y="861.8" class="st2" width="50.2" height="20.1"/>
				</g>
				<g transform="matrix(1.32878,4.0931e-32,2.34176e-32,1.65179,117.628,-1186.98)">
					<rect x="306.2" y="861.8" class="st2" width="50.2" height="20.1"/>
				</g>
			</g>
			<g transform="matrix(1,0,0,1,-23.5827,0)">
				<path class="st1" d="M1030.5,321h-37.2v-51.4h-25.6V321h-37.6V185.1h37.6v53.4h25.6v-53.4h37.2V321z"/>
				<path class="st1" d="M1146.5,321h-36.5l-4.2-21.4H1080l-4.2,21.4H1041l24.9-135.9h55.6L1146.5,321z M1101.6,274l-7.7-48.6h-1.5
					l-7.7,48.6H1101.6z"/>
				<rect x="1160.1" y="185.1" class="st1" width="37.2" height="135.9"/>
				<path class="st1" d="M1317.8,321h-35.9l-28.2-63.2h-1.8V321h-33.3V185.1h37l26.9,65.2h1.8v-65.2h33.5V321z"/>
				<g transform="matrix(-1.31015,0,0,1.31015,830.67,296.101)">
					<path class="st1" d="M-39.2-31.7c0,9.8,1,16.8,2.9,21c1.9,4.2,5.2,6.3,9.6,6.3S-16-5.6-7.8-7.7l4.3,23.6
						c-8.8,3.2-17.6,4.8-26.6,4.8c-13.4,0-23.1-4.4-29.1-13.3c-6.1-8.9-9.1-22-9.1-39.6s3.2-31,9.5-40.3s16.7-13.9,31.1-13.9
						c8.5,0,16.5,1.8,24.2,5.3L-8-55.1c-8.7-2.9-14.8-4.3-18.2-4.3c-4.9,0-8.3,2.1-10.2,6.4C-38.3-48.7-39.2-41.6-39.2-31.7z"/>
				</g>
			</g>
		</g>
	</g>
</g>
</svg>
