<?xml version="1.0" encoding="utf-8"?>
<!-- Generator: Adobe Illustrator 24.1.2, SVG Export Plug-In . SVG Version: 6.00 Build 0)  -->
<svg version="1.1" id="Calque_1" xmlns="http://www.w3.org/2000/svg" xmlns:xlink="http://www.w3.org/1999/xlink" x="0px" y="0px"
	 viewBox="0 0 758.4 349.3" style="enable-background:new 0 0 758.4 349.3;" xml:space="preserve">
<style type="text/css">
	.st0{enable-background:new    ;}
	.st1{fill:#72A03E;}
	.st2{fill:#A1E959;}
</style>
<g class="st0">
	<path class="st1" d="M10.3,85.6V14.4h7.6v64.4h36.4v6.8H10.3z"/>
	<path class="st1" d="M94.2,85.6v-4.7c-3.9,3.9-7.6,5.3-14.2,5.3c-6.8,0-10.5-1.2-13.9-4.5c-2.5-2.4-3.7-6.1-3.7-10
		c0-8.7,6.1-14.2,17.1-14.2h14.7v-4.7c0-7.1-3.5-10.8-12.6-10.8c-6.2,0-9.4,1.6-12.4,5.7l-4.9-4.5c4.3-5.7,9.3-7.4,17.4-7.4
		c13.3,0,19.7,5.8,19.7,16.4v33.4H94.2z M94.2,62.9H80.5c-7.4,0-11.1,2.9-11.1,8.7c0,5.7,3.5,8.4,11.4,8.4c4.1,0,7.7-0.4,10.9-3.3
		c1.7-1.6,2.5-4.4,2.5-8.5V62.9z"/>
</g>
<g class="st0">
</g>
<g class="st0">
	<path class="st2" d="M180.3,81.5c-2.9,3-7.5,4.7-12.6,4.7c-5.6,0-9.4-1.5-13-5.5v4.9h-12.6V14.4h13v23.7c3.3-3.8,7.3-5.2,12.6-5.2
		c5.2,0,9.7,1.7,12.6,4.7c5,5.1,5.4,13.2,5.4,21.9C185.7,68.3,185.3,76.4,180.3,81.5z M163.9,44.6c-7.8,0-8.8,6.5-8.8,14.9
		s1,15,8.8,15c7.8,0,8.8-6.6,8.8-15S171.7,44.6,163.9,44.6z"/>
</g>
<g class="st0">
	<path class="st2" d="M213.7,85.6c-10.7,0-15.2-7.5-15.2-14.9V14.4h13v55.5c0,3.1,1.3,4.7,4.6,4.7h5v11H213.7z"/>
</g>
<g class="st0">
	<path class="st2" d="M268.1,79.8c-3.3,3.4-8.5,6.4-16.2,6.4c-7.7,0-12.8-3-16.1-6.4c-4.7-5-5.9-10.9-5.9-20.3s1.2-15.2,5.9-20.2
		c3.3-3.4,8.4-6.4,16.1-6.4c7.7,0,12.9,2.9,16.2,6.4c4.7,5,5.9,10.8,5.9,20.2S272.9,74.9,268.1,79.8z M258,46.9
		c-1.5-1.5-3.5-2.3-6.1-2.3c-2.5,0-4.5,0.8-6,2.3c-2.7,2.6-3,7.3-3,12.6c0,5.4,0.3,10.1,3,12.7c1.5,1.5,3.5,2.3,6,2.3
		c2.6,0,4.6-0.8,6.1-2.3c2.7-2.6,3-7.3,3-12.7C261,54.2,260.7,49.5,258,46.9z"/>
	<path class="st2" d="M307.1,86.2c-10.4,0-23.3-5.6-23.3-26.7s12.9-26.6,23.3-26.6c7.2,0,12.6,2.2,17.2,7l-8.8,8.8
		c-2.7-2.9-5-4.1-8.4-4.1c-3.1,0-5.5,1.1-7.4,3.4c-2,2.5-2.9,6-2.9,11.5s0.9,9.1,2.9,11.6c1.9,2.3,4.3,3.4,7.4,3.4
		c3.4,0,5.7-1.2,8.4-4.1l8.8,8.7C319.7,83.9,314.3,86.2,307.1,86.2z"/>
</g>
<g class="st0">
	<path class="st2" d="M365.9,85.6l-12.8-21.7l-5.5,6.2v15.5h-13V14.4h13v40.4l17.3-21.3h15.7l-18.6,21l20,31.1H365.9z"/>
</g>
<g class="st0">
	<path class="st2" d="M408.6,86.2c-10.4,0-23.3-5.6-23.3-26.7s12.9-26.6,23.3-26.6c7.2,0,12.6,2.2,17.2,7l-8.8,8.8
		c-2.7-2.9-5-4.1-8.4-4.1c-3.1,0-5.5,1.1-7.4,3.4c-2,2.5-2.9,6-2.9,11.5s0.9,9.1,2.9,11.6c1.9,2.3,4.3,3.4,7.4,3.4
		c3.4,0,5.7-1.2,8.4-4.1l8.8,8.7C421.2,83.9,415.8,86.2,408.6,86.2z"/>
	<path class="st2" d="M466.2,85.6V54.1c0-7.1-4.5-9.5-8.6-9.5c-4.1,0-8.7,2.4-8.7,9.5v31.5h-13V14.4h13v23.9
		c3.3-3.6,7.7-5.4,12.7-5.4c5.2,0,9.4,1.7,12.3,4.6c4.2,4.2,5.3,9.1,5.3,14.8v33.3H466.2z"/>
	<path class="st2" d="M519.9,85.6v-4.5c-3.5,3.5-6.8,5-12.8,5c-5.9,0-10.3-1.6-13.3-4.6c-2.8-2.9-4.3-7.1-4.3-11.7
		c0-8.3,5.7-15.1,18-15.1h12.1v-2.6c0-5.7-2.8-8.2-9.7-8.2c-4.7,0-7.2,1.3-10,4.5l-8.2-8.1c5.1-5.6,10-7.4,18.7-7.4
		c14.7,0,22.2,6.2,22.2,18.4v34.3H519.9z M519.6,63.6h-9.9c-5.2,0-7.7,2.1-7.7,6c0,3.6,2.5,5.9,7.9,5.9c3.2,0,5.5-0.4,7.7-2.5
		c1.5-1.3,2-3.3,2-6.6V63.6z"/>
	<path class="st2" d="M546.4,24.6V14h13.3v10.6H546.4z M546.6,85.6V35h13v50.6H546.6z"/>
	<path class="st2" d="M604.4,85.6V54.1c0-7.1-4.5-9.5-8.6-9.5s-8.7,2.4-8.7,9.5v31.5h-13V33.5h12.7v4.8c3.4-3.6,8.2-5.4,13-5.4
		c5.2,0,9.4,1.7,12.3,4.6c4.2,4.2,5.3,9.1,5.3,14.8v33.3H604.4z"/>
</g>
<g class="st0">
	<path class="st1" d="M36.9,205.6v-4.7c-3.9,3.9-7.6,5.3-14.2,5.3c-6.8,0-10.5-1.2-13.9-4.5c-2.5-2.4-3.7-6.1-3.7-10
		c0-8.7,6.1-14.2,17.1-14.2h14.7v-4.7c0-7.1-3.5-10.8-12.6-10.8c-6.2,0-9.4,1.6-12.4,5.7L7,163.2c4.3-5.7,9.3-7.4,17.4-7.4
		c13.3,0,19.7,5.8,19.7,16.4v33.4H36.9z M36.9,182.9H23.2c-7.4,0-11.1,2.9-11.1,8.7c0,5.7,3.5,8.4,11.4,8.4c4.1,0,7.7-0.4,10.9-3.3
		c1.7-1.6,2.5-4.4,2.5-8.5V182.9z"/>
	<path class="st1" d="M92.7,205.6v-5.5c-3.5,4-8.4,6.1-13.9,6.1c-5.3,0-9.7-1.6-12.7-4.6c-3.5-3.4-5-8.1-5-13.8v-31.4h7.2v30.3
		c0,8.7,4.6,13.1,12,13.1s12.3-4.5,12.3-13.1v-30.3h7.2v49.2H92.7z"/>
	<path class="st1" d="M158.2,206.2c-8.4,0-14.9-1.9-20.2-7.1l4.8-4.8c3.8,4,9.2,5.7,15.3,5.7c8.2,0,13.1-2.9,13.1-8.7
		c0-4.4-2.4-6.7-8.2-7.2l-8.1-0.7c-9.6-0.8-14.7-5-14.7-13.2c0-9,7.5-14.4,18.1-14.4c7.1,0,13.2,1.7,17.7,5.3l-4.7,4.7
		c-3.5-2.7-8-3.9-13.1-3.9c-7.2,0-11,3-11,8.1c0,4.4,2.7,6.6,8.8,7.2l7.7,0.7c8.6,0.8,14.5,4,14.5,13.3
		C178.2,200.7,170.2,206.2,158.2,206.2z"/>
	<path class="st1" d="M196.8,182.9c0,10.8,5,17,14.5,17c5.7,0,9-1.7,12.9-5.6l4.9,4.3c-5,5-9.7,7.6-18,7.6
		c-13.1,0-21.5-7.8-21.5-25.2c0-16,7.7-25.2,20.2-25.2c12.8,0,20.2,9.1,20.2,23.9v3.2H196.8z M221.3,169.3
		c-2.1-4.5-6.2-7.4-11.5-7.4s-9.4,2.9-11.5,7.4c-1.2,2.6-1.3,4.2-1.5,8.2h26.1C222.6,173.5,222.5,171.9,221.3,169.3z"/>
	<path class="st1" d="M272.8,165.8c-2.7-2.7-4.7-3.6-8.5-3.6c-7.2,0-11.8,5.7-11.8,13.2v30.2h-7.2v-49.2h7.2v6
		c2.7-4.1,8.1-6.6,13.8-6.6c4.7,0,8.3,1.1,11.8,4.6L272.8,165.8z"/>
	<path class="st1" d="M303.9,205.6h-6.4l-18-49.2h7.8l13.4,39.5l13.5-39.5h7.8L303.9,205.6z"/>
	<path class="st1" d="M331.7,142.4v-8.1h8.1v8.1H331.7z M332.1,205.6v-49.2h7.2v49.2H332.1z"/>
</g>
<g class="st0">
	<path class="st1" d="M376.4,206.2c-12.4,0-21.8-8.4-21.8-25.2c0-16.8,9.4-25.2,21.8-25.2c6.8,0,11.1,1.8,16.2,7.3l-4.9,4.6
		c-3.7-4.1-6.6-5.5-11.3-5.5c-4.8,0-8.8,1.9-11.4,5.6c-2.3,3.2-3.2,7-3.2,13.2c0,6.2,0.9,10,3.2,13.2c2.6,3.7,6.6,5.6,11.4,5.6
		c4.7,0,7.6-1.5,11.3-5.6l4.9,4.7C387.5,204.4,383.2,206.2,376.4,206.2z"/>
</g>
<g class="st0">
	<path class="st1" d="M409.3,182.9c0,10.8,5,17,14.5,17c5.7,0,9-1.7,12.9-5.6l4.9,4.3c-5,5-9.7,7.6-18,7.6
		c-13.1,0-21.5-7.8-21.5-25.2c0-16,7.7-25.2,20.2-25.2c12.8,0,20.2,9.1,20.2,23.9v3.2H409.3z M433.8,169.3
		c-2.1-4.5-6.2-7.4-11.5-7.4c-5.3,0-9.4,2.9-11.5,7.4c-1.2,2.6-1.3,4.2-1.5,8.2h26.1C435.1,173.5,435,171.9,433.8,169.3z"/>
	<path class="st1" d="M512.1,205.6v-5.9c-4.1,5.2-8.4,6.5-14,6.5c-5.1,0-9.4-1.7-12-4.3c-4.9-5-6-13-6-20.9c0-7.9,1.1-16,6-20.9
		c2.6-2.6,6.9-4.3,12-4.3c5.5,0,9.8,1.2,13.9,6.3v-27.7h7.2v71.2H512.1z M499.7,162.2c-10.8,0-12.4,9.2-12.4,18.8
		c0,9.6,1.6,18.8,12.4,18.8c10.7,0,12.3-9.2,12.3-18.8C512,171.4,510.4,162.2,499.7,162.2z"/>
	<path class="st1" d="M541.7,182.9c0,10.8,5,17,14.5,17c5.7,0,9-1.7,12.9-5.6l4.9,4.3c-5,5-9.7,7.6-18,7.6
		c-13.1,0-21.5-7.8-21.5-25.2c0-16,7.7-25.2,20.2-25.2c12.8,0,20.2,9.1,20.2,23.9v3.2H541.7z M566.2,169.3
		c-2.1-4.5-6.2-7.4-11.5-7.4s-9.4,2.9-11.5,7.4c-1.2,2.6-1.3,4.2-1.5,8.2h26.1C567.5,173.5,567.4,171.9,566.2,169.3z"/>
</g>
<g class="st0">
	<path class="st1" d="M21.3,325.6c-8.6,0-12.5-5.6-12.5-13.1v-58.1H16v57.8c0,4.8,1.6,7.2,6.6,7.2h3.9v6.2H21.3z"/>
	<path class="st1" d="M66.3,325.6v-4.7c-3.9,3.9-7.6,5.3-14.2,5.3c-6.8,0-10.5-1.2-13.9-4.5c-2.5-2.4-3.7-6.1-3.7-10
		c0-8.7,6.1-14.2,17.1-14.2h14.7v-4.7c0-7.1-3.5-10.8-12.6-10.8c-6.2,0-9.4,1.6-12.4,5.7l-4.9-4.5c4.3-5.7,9.3-7.4,17.4-7.4
		c13.3,0,19.7,5.8,19.7,16.4v33.4H66.3z M66.3,302.9H52.6c-7.4,0-11.1,2.9-11.1,8.7c0,5.7,3.5,8.4,11.4,8.4c4.1,0,7.7-0.4,10.9-3.3
		c1.7-1.6,2.5-4.4,2.5-8.5V302.9z"/>
</g>
<g class="st0">
</g>
<g class="st0">
	<path class="st2" d="M152.4,321.5c-2.9,3-7.5,4.7-12.6,4.7c-5.3,0-9.3-1.4-12.6-5.2v23.7h-13v-71.2h12.6v4.9c3.6-4,7.4-5.5,13-5.5
		c5.1,0,9.7,1.7,12.6,4.7c5,5.1,5.4,13.2,5.4,21.9C157.8,308.2,157.4,316.4,152.4,321.5z M136,284.6c-7.8,0-8.8,6.5-8.8,14.9
		s1,15,8.8,15c7.8,0,8.8-6.6,8.8-15S143.8,284.6,136,284.6z"/>
	<path class="st2" d="M200.5,325.6v-31.5c0-7.1-4.5-9.5-8.6-9.5c-4.1,0-8.7,2.4-8.7,9.5v31.5h-13v-71.2h13v23.9
		c3.3-3.6,7.7-5.4,12.7-5.4c5.2,0,9.4,1.7,12.3,4.6c4.2,4.2,5.3,9.1,5.3,14.8v33.3H200.5z"/>
	<path class="st2" d="M227.3,264.6V254h13.3v10.6H227.3z M227.5,325.6V275h13v50.6H227.5z"/>
	<path class="st2" d="M269.7,325.6c-10.7,0-15.2-7.5-15.2-14.9v-56.3h13v55.5c0,3.1,1.3,4.7,4.6,4.7h5v11H269.7z"/>
	<path class="st2" d="M314.2,325.6v-4.5c-3.5,3.5-6.8,5-12.8,5c-5.9,0-10.3-1.6-13.3-4.6c-2.8-2.9-4.3-7.1-4.3-11.7
		c0-8.3,5.7-15.1,18-15.1h12.1v-2.6c0-5.7-2.8-8.2-9.7-8.2c-4.7,0-7.2,1.3-10,4.5l-8.2-8.1c5.1-5.6,10-7.4,18.7-7.4
		c14.7,0,22.2,6.2,22.2,18.4v34.3H314.2z M313.9,303.6H304c-5.2,0-7.7,2.1-7.7,6c0,3.6,2.5,5.9,7.9,5.9c3.2,0,5.5-0.4,7.7-2.5
		c1.5-1.3,2-3.3,2-6.6V303.6z"/>
	<path class="st2" d="M371.2,325.6v-31.5c0-7.1-4.5-9.5-8.6-9.5c-4.1,0-8.7,2.4-8.7,9.5v31.5h-13v-52.1h12.7v4.8
		c3.4-3.6,8.2-5.4,13-5.4c5.2,0,9.4,1.7,12.3,4.6c4.2,4.2,5.3,9.1,5.3,14.8v33.3H371.2z"/>
	<path class="st2" d="M414.5,325.6c-10.6,0-15.1-7.5-15.1-14.9v-25.8h-5.5V275h5.5v-15.4h13V275h9.2v9.9h-9.2v25
		c0,3,1.4,4.7,4.5,4.7h4.7v11H414.5z"/>
	<path class="st2" d="M463.7,325.6v-31.5c0-7.1-4.5-9.5-8.6-9.5c-4.1,0-8.7,2.4-8.7,9.5v31.5h-13v-71.2h13v23.9
		c3.3-3.6,7.7-5.4,12.7-5.4c5.2,0,9.4,1.7,12.3,4.6c4.2,4.2,5.3,9.1,5.3,14.8v33.3H463.7z"/>
</g>
<g class="st0">
	<path class="st2" d="M525.9,287.7c-2-2-3.7-3.1-6.9-3.1c-4,0-8.4,3-8.4,9.6v31.4h-13v-52.1h12.7v5c2.5-3,7.5-5.6,13.1-5.6
		c5.1,0,8.7,1.3,12.3,4.9L525.9,287.7z"/>
</g>
<g class="st0">
	<path class="st2" d="M578.1,319.8c-3.3,3.4-8.5,6.4-16.2,6.4s-12.8-3-16.1-6.4c-4.7-5-5.9-10.9-5.9-20.3s1.2-15.2,5.9-20.2
		c3.3-3.4,8.4-6.4,16.1-6.4s12.9,2.9,16.2,6.4c4.7,5,5.9,10.8,5.9,20.2S582.9,314.9,578.1,319.8z M568,286.9
		c-1.5-1.5-3.5-2.3-6.1-2.3c-2.5,0-4.5,0.8-6,2.3c-2.7,2.6-3,7.3-3,12.6c0,5.4,0.3,10.1,3,12.7c1.5,1.5,3.5,2.3,6,2.3
		c2.6,0,4.6-0.8,6.1-2.3c2.7-2.6,3-7.3,3-12.7C571,294.2,570.7,289.5,568,286.9z"/>
	<path class="st2" d="M634.6,321.5c-2.9,3-7.5,4.7-12.6,4.7c-5.3,0-9.3-1.4-12.6-5.2v23.7h-13v-71.2H609v4.9c3.6-4,7.4-5.5,13-5.5
		c5.1,0,9.7,1.7,12.6,4.7c5,5.1,5.4,13.2,5.4,21.9C640,308.2,639.6,316.4,634.6,321.5z M618.2,284.6c-7.8,0-8.8,6.5-8.8,14.9
		s1,15,8.8,15s8.8-6.6,8.8-15S626,284.6,618.2,284.6z"/>
	<path class="st2" d="M652.2,264.6V254h13.3v10.6H652.2z M652.4,325.6V275h13v50.6H652.4z"/>
	<path class="st2" d="M690.1,303.6c0,6.8,4,11.6,11.4,11.6c5.7,0,8.5-1.7,11.8-4.9l7.9,7.7c-5.3,5.4-10.4,8.2-19.8,8.2
		c-12.3,0-24.1-5.6-24.1-26.7c0-17,9.2-26.6,22.7-26.6c14.5,0,22.7,10.4,22.7,25.2v5.5H690.1z M708.7,289.1
		c-1.4-3.1-4.3-5.4-8.7-5.4s-7.3,2.3-8.7,5.4c-0.9,1.9-1.1,3.3-1.2,5.6h19.8C709.8,292.4,709.6,291,708.7,289.1z"/>
</g>
<g class="st0">
	<path class="st1" d="M740.2,325.6v-9.4h9.4v9.4H740.2z"/>
</g>
</svg>
